:SAMPLES-PER-SECOND 30
:FULLY-SPECIFIED
:DEGREES
953
root  3.59154 34.179 -20.0922 -76.0056 89.4831 -84.2007
LeftUpLeg  -8.06133 8.2233 -1.01211
LeftLeg  10.8737 4.04915 0.509249
LeftFoot  -2.98208 -0.010648 -0.202643
LeftToes  -12.5089 7.65994e-007 1.12379e-007
Spine  0.940273 0.166232 -0.0713001
Spine1  1.76606 0.190539 0.0892068
RightShoulder  0.000342652 2.50668 0.113035
RightArm  14.596 -23.7276 73.2111
RightForeArm  50.7468 78.6379 62.2535
RightHand  -1.19815 -7.89916 17.5792
LeftShoulder1  0.0348507 -0.352774 -10.8647
LeftArm  -8.73365 12.4548 -66.9323
LeftForeArm  27.6722 -17.7145 -3.22227
LeftHand  0.160745 5.86215 2.76545
HEad  -12.387 -6.09067 3.6647
RightUpLeg  -12.192 -3.19118 -2.4095
RightLeg  10.5605 6.71181 0.809635
RightFoot  2.26324 0.00531552 0.275811
RightToes  -29.3449 -0.13896 -0.246886
954
root  3.53006 34.1883 -20.1272 -69.4128 89.5447 -77.5855
LeftUpLeg  -7.96978 8.31716 -1.15496
LeftLeg  10.4909 3.99413 0.475307
LeftFoot  -2.73544 -0.0109486 -0.185015
LeftToes  -12.4793 7.65994e-007 1.12379e-007
Spine  0.990673 0.168687 -0.0969795
Spine1  1.86744 0.20701 0.019647
RightShoulder  0.00172883 2.91708 0.27648
RightArm  12.2797 -24.0063 73.7856
RightForeArm  43.0614 77.9636 56.4618
RightHand  -1.39355 -8.73372 18.4541
LeftShoulder1  0.0338436 -0.349538 -10.8474
LeftArm  -7.72199 11.3463 -67.5145
LeftForeArm  27.1178 -18.4395 -3.3639
LeftHand  0.155149 5.77589 2.70156
HEad  -12.3581 -5.71911 3.37083
RightUpLeg  -12.2077 -3.20688 -2.53425
RightLeg  10.3903 6.77237 0.796562
RightFoot  2.48153 0.0039489 0.300643
RightToes  -29.5692 -0.139553 -0.247497
955
root  3.46324 34.1961 -20.1603 -62.4307 89.5768 -70.6337
LeftUpLeg  -7.97108 8.42321 -1.27642
LeftLeg  10.1721 3.90111 0.442284
LeftFoot  -2.51497 -0.0112174 -0.167608
LeftToes  -12.4264 7.65994e-007 1.12379e-007
Spine  1.03508 0.172465 -0.110055
Spine1  1.95863 0.222169 -0.0319472
RightShoulder  0.00333164 3.2765 0.640545
RightArm  8.88224 -24.3027 74.5984
RightForeArm  30.496 76.34 46.917
RightHand  -1.56146 -9.57866 18.8334
LeftShoulder1  0.0329261 -0.37 -10.7805
LeftArm  -6.64568 10.3087 -68.1102
LeftForeArm  26.7397 -19.1611 -3.50601
LeftHand  0.151395 5.59284 2.72539
HEad  -12.5883 -5.3052 3.10456
RightUpLeg  -12.2773 -3.15852 -2.63091
RightLeg  10.203 6.7533 0.772022
RightFoot  2.68857 0.00290982 0.321492
RightToes  -29.7026 -0.140117 -0.24808
956
root  3.39816 34.2037 -20.1968 -42.534 89.5426 -50.8134
LeftUpLeg  -7.97557 8.49344 -1.42191
LeftLeg  9.79038 3.97453 0.423882
LeftFoot  -2.31738 -0.0110011 -0.158581
LeftToes  -12.2449 7.65994e-007 1.12379e-007
Spine  1.05452 0.179384 -0.109048
Spine1  2.00078 0.248548 -0.0534926
RightShoulder  0.00508303 3.41192 1.10783
RightArm  4.56942 -24.2983 75.6653
RightForeArm  18.3021 73.329 36.2923
RightHand  -1.64547 -10.4276 18.2459
LeftShoulder1  0.0321584 -0.426621 -10.742
LeftArm  -5.60707 9.44134 -68.6324
LeftForeArm  26.5236 -19.8799 -3.64881
LeftHand  0.141964 5.45609 2.6054
HEad  -12.7784 -4.88381 2.86287
RightUpLeg  -12.4156 -3.13049 -2.7298
RightLeg  10.0354 6.86064 0.763974
RightFoot  2.92135 0.00130221 0.352332
RightToes  -29.8339 -0.140673 -0.248655
957
root  3.33709 34.2071 -20.2256 -22.9328 89.3398 -31.2402
LeftUpLeg  -7.97356 8.71494 -1.51916
LeftLeg  9.53046 3.99644 0.407938
LeftFoot  -2.14761 -0.0109673 -0.148682
LeftToes  -12.2886 7.65994e-007 1.12379e-007
Spine  1.08503 0.156119 -0.110047
Spine1  2.06183 0.214982 -0.0746469
RightShoulder  0.00683889 3.47566 1.61979
RightArm  -0.563252 -23.745 76.9998
RightForeArm  9.90686 68.596 26.8462
RightHand  -1.52361 -11.0404 16.0283
LeftShoulder1  0.0316007 -0.416286 -10.6576
LeftArm  -4.78151 8.91536 -69.0334
LeftForeArm  26.4911 -21.3067 -3.93619
LeftHand  0.131912 5.23503 2.51158
HEad  -12.8975 -4.35612 2.68411
RightUpLeg  -12.5338 -2.93776 -2.7993
RightLeg  9.90477 6.93508 0.756261
RightFoot  3.13949 -0.000104925 0.381292
RightToes  -29.9995 -0.141239 -0.249241
958
root  3.26591 34.2039 -20.2627 -8.70209 88.9526 -17.0214
LeftUpLeg  -8.05946 9.06644 -1.66555
LeftLeg  9.47937 4.05721 0.410501
LeftFoot  -2.10917 -0.0104696 -0.149073
LeftToes  -12.2328 7.65994e-007 1.12379e-007
Spine  1.11913 0.1117 -0.126079
Spine1  2.12691 0.134484 -0.118858
RightShoulder  0.00843795 3.63365 2.11465
RightArm  -6.34794 -22.5763 78.4056
RightForeArm  6.2315 62.126 19.5296
RightHand  -1.20486 -11.3708 12.421
LeftShoulder1  0.0313131 -0.438688 -10.5665
LeftArm  -4.13879 8.5705 -69.3116
LeftForeArm  26.3645 -22.4038 -4.16117
LeftHand  0.129951 5.0927 2.54807
HEad  -12.9839 -3.63084 2.53996
RightUpLeg  -12.784 -2.79463 -2.90298
RightLeg  10.0104 7.22077 0.800659
RightFoot  3.25115 -0.00109637 0.410728
RightToes  -30.0393 -0.141836 -0.249855
959
root  3.21143 34.2014 -20.3201 -4.7597 88.6951 -13.0219
LeftUpLeg  -8.06101 9.00267 -1.8013
LeftLeg  9.44644 4.38197 0.440846
LeftFoot  -2.09457 -0.0095241 -0.160623
LeftToes  -12.084 7.65994e-007 1.12379e-007
Spine  1.17603 -0.0240692 -0.123597
Spine1  2.23513 -0.133909 -0.123488
RightShoulder  0.00975434 3.93685 2.65565
RightArm  -12.4477 -20.8114 79.4038
RightForeArm  8.18575 54.2671 14.2145
RightHand  -0.633331 -11.0909 6.88218
LeftShoulder1  0.0313558 -0.516125 -10.467
LeftArm  -3.66786 8.35063 -69.5305
LeftForeArm  26.2461 -23.1207 -4.31021
LeftHand  0.12764 4.96079 2.57238
HEad  -12.9846 -2.87553 2.44635
RightUpLeg  -12.9282 -3.11791 -2.98235
RightLeg  10.1362 7.7929 0.880967
RightFoot  3.34832 -0.00257884 0.4567
RightToes  -30.1457 -0.142482 -0.250518
960
root  3.12326 34.1947 -20.3541 -0.0592346 87.7529 -8.2856
LeftUpLeg  -8.18671 9.58843 -1.90574
LeftLeg  9.59617 4.70922 0.48618
LeftFoot  -2.15963 -0.00849284 -0.178826
LeftToes  -12.0389 7.65994e-007 1.12379e-007
Spine  1.23097 0.0353104 -0.138434
Spine1  2.33668 -0.0189979 -0.150463
RightShoulder  0.0112778 4.37219 3.1964
RightArm  -18.1935 -18.4136 79.6884
RightForeArm  14.1643 45.0989 10.2033
RightHand  0.0498711 -10.5441 -0.170346
LeftShoulder1  0.031789 -0.608877 -10.3725
LeftArm  -3.38238 8.13834 -69.6631
LeftForeArm  26.2882 -23.3064 -4.34904
LeftHand  0.126498 4.87211 2.52159
HEad  -12.9956 -2.12594 2.42813
RightUpLeg  -13.3577 -2.56303 -3.04217
RightLeg  10.4936 8.16962 0.974699
RightFoot  3.4444 -0.00319386 0.492617
RightToes  -30.1302 -0.143198 -0.251246
961
root  3.04184 34.1884 -20.3894 1.00128 86.8047 -7.14494
LeftUpLeg  -8.28547 9.98197 -1.96141
LeftLeg  9.8129 5.24811 0.561809
LeftFoot  -2.2914 -0.00689801 -0.212226
LeftToes  -11.8111 7.65994e-007 1.12379e-007
Spine  1.32583 0.0697233 -0.152705
Spine1  2.51855 0.0420856 -0.173178
RightShoulder  0.013074 5.05164 3.80548
RightArm  -23.4268 -15.7081 78.9461
RightForeArm  20.6904 34.7078 7.01542
RightHand  0.709524 -10.4 -7.40983
LeftShoulder1  0.0326728 -0.706295 -10.1995
LeftArm  -3.28218 7.94639 -69.7832
LeftForeArm  26.4163 -23.0517 -4.29574
LeftHand  0.126486 4.76572 2.50463
HEad  -13.0523 -1.45407 2.55126
RightUpLeg  -13.7806 -2.2171 -3.0413
RightLeg  10.9672 8.75307 1.11689
RightFoot  3.49739 -0.00444823 0.536364
RightToes  -29.9938 -0.144003 -0.25206
962
root  2.95124 34.1777 -20.4139 2.46916 85.7415 -5.59189
LeftUpLeg  -8.427 10.3768 -2.06109
LeftLeg  10.1132 5.90486 0.663247
LeftFoot  -2.41858 -0.00533415 -0.252701
LeftToes  -11.7875 7.65994e-007 1.12379e-007
Spine  1.43539 0.11202 -0.191804
Spine1  2.73171 0.107553 -0.230633
RightShoulder  0.014298 6.08159 4.29507
RightArm  -28.7924 -13.6307 77.4259
RightForeArm  25.3801 24.8724 4.684
RightHand  1.29358 -11.1704 -12.7931
LeftShoulder1  0.0340674 -0.817583 -10.0208
LeftArm  -3.41167 7.80731 -69.8165
LeftForeArm  26.6852 -22.3998 -4.16023
LeftHand  0.126538 4.76091 2.57227
HEad  -13.0017 -0.928691 2.82257
RightUpLeg  -14.3366 -1.77144 -3.08507
RightLeg  11.6735 9.36517 1.31119
RightFoot  3.42044 -0.00501322 0.561815
RightToes  -29.9906 -0.144917 -0.252978
963
root  2.85668 34.1659 -20.4246 3.42845 84.6707 -4.55592
LeftUpLeg  -8.56923 10.8826 -2.13696
LeftLeg  10.3821 6.42424 0.7519
LeftFoot  -2.49838 -0.00620185 -0.284419
LeftToes  -11.996 7.65994e-007 1.12379e-007
Spine  1.56975 0.145734 -0.251935
Spine1  2.99779 0.147914 -0.314724
RightShoulder  0.0143286 7.0298 4.59285
RightArm  -33.8115 -12.6575 75.4405
RightForeArm  27.0007 17.5746 3.19693
RightHand  1.68009 -12.7248 -14.6053
LeftShoulder1  0.036033 -0.922941 -9.76864
LeftArm  -3.68198 7.69782 -69.7686
LeftForeArm  26.9439 -21.4893 -3.97323
LeftHand  0.125201 4.78753 2.49149
HEad  -12.75 -0.732115 3.36885
RightUpLeg  -15.0636 -1.37084 -3.10876
RightLeg  12.7173 10.0032 1.58477
RightFoot  3.2361 -0.00523748 0.568878
RightToes  -30.3165 -0.145959 -0.254018
